<?xml version="1.0" encoding="UTF-8"?>
<svg width="46px" height="51px" viewBox="0 0 46 51" version="1.1" xmlns="http://www.w3.org/2000/svg" xmlns:xlink="http://www.w3.org/1999/xlink">
    <!-- Generator: Sketch 49.3 (51167) - http://www.bohemiancoding.com/sketch -->
    <title>monikadauer_final_sw_117</title>
    <desc>Created with Sketch.</desc>
    <defs></defs>
    <g id="Page-1" stroke="none" stroke-width="1" fill="none" fill-rule="evenodd">
        <g id="monikadauer_final_sw_117" fill="#000000">
            <path d="M39.154,15.64 C41.583,17.317 43.787,19.127 45.861,21.016 C42.499,20.484 39.248,20.261 36.174,20.537 C37.097,18.868 38.091,17.235 39.154,15.64" id="Fill-1"></path>
            <path d="M29.99,31.761 C32.071,25.593 34.846,20.039 38.207,15.001 C33.801,15.805 29.494,17.057 25.34,18.993 C26.63,23.335 28.195,27.595 29.99,31.761" id="Fill-2"></path>
            <path d="M12.647,20.815 C9.642,16.184 6.303,11.885 2.715,7.836 C5.65,8.386 8.473,9.193 11.228,10.162 C12.014,12.752 12.658,15.387 13.192,18.045 L13.453,19.347 C13.182,19.835 12.914,20.325 12.647,20.815" id="Fill-3"></path>
            <path d="M14.312,17.82 C13.117,11.869 11.396,6.119 8.828,0.691 C13.136,2.427 17.239,4.48 20.738,7.467 L20.652,7.594 C18.405,10.926 16.295,14.338 14.312,17.82" id="Fill-4"></path>
            <path d="M0.309,50.881 L3.405,43.632 L5.066,42.303 C5.97,41.58 6.901,40.871 7.856,40.19 C7.895,42.708 8.154,45.22 8.61,47.648 L0.309,50.881" id="Fill-5"></path>
            <path d="M29.459,33.399 C25.781,25.098 23.122,16.713 21.6,8.233 C14.584,18.635 8.943,29.75 4.352,41.41 C12.531,34.867 20.849,31.176 29.459,33.399" id="Fill-6"></path>
        </g>
    </g>
</svg>